<svg width="203" height="128" viewBox="0 0 203 128" fill="none" xmlns="http://www.w3.org/2000/svg">
<rect y="16" width="200" height="112" rx="50" fill="#FDFF00"/>
<path d="M77.9277 75.2695C77.752 77.2617 77.2393 79.1953 76.3896 81.0703C75.5693 82.916 74.4707 84.5566 73.0938 85.9922C71.7461 87.4277 70.1494 88.5557 68.3037 89.376C66.4873 90.1963 64.4951 90.5479 62.3271 90.4307C60.2764 90.3135 58.2842 89.8447 56.3506 89.0244C54.417 88.2041 52.7031 87.1055 51.209 85.7285C49.7441 84.3223 48.5723 82.6963 47.6934 80.8506C46.8438 78.9756 46.4775 76.9248 46.5947 74.6982C46.7412 72.208 47.2686 70.0254 48.1768 68.1504C49.1143 66.2461 50.3008 64.6641 51.7363 63.4043C53.1719 62.1445 54.7832 61.207 56.5703 60.5918C58.3574 59.9473 60.1885 59.6104 62.0635 59.5811C63.9385 59.5518 65.7842 59.8447 67.6006 60.46C69.417 61.0459 71.0576 61.9541 72.5225 63.1846C73.9873 64.3857 75.2031 65.9092 76.1699 67.7549C77.1367 69.5713 77.7227 71.71 77.9277 74.1709C77.9863 74.4053 78.0156 74.5811 78.0156 74.6982C78.0156 74.8447 77.9863 75.0352 77.9277 75.2695ZM50.2422 74.6982C50.3887 77.2764 51.0625 79.4443 52.2637 81.2021C53.4648 82.9307 54.9297 84.2344 56.6582 85.1133C58.416 85.9629 60.291 86.3877 62.2832 86.3877C64.3047 86.3877 66.1797 85.9482 67.9082 85.0693C69.666 84.1904 71.1455 82.9014 72.3467 81.2021C73.5479 79.4736 74.2217 77.3057 74.3682 74.6982C74.2803 73.1162 73.9141 71.5928 73.2695 70.1279C72.6543 68.6338 71.8193 67.3301 70.7646 66.2168C69.71 65.0742 68.4648 64.1807 67.0293 63.5361C65.5938 62.8623 64.0264 62.5693 62.3271 62.6572C60.7451 62.7451 59.207 63.1113 57.7129 63.7559C56.248 64.3711 54.9443 65.2061 53.8018 66.2607C52.6592 67.3154 51.751 68.5605 51.0771 69.9961C50.4326 71.4316 50.1543 72.999 50.2422 74.6982ZM149.763 91.0459C149.675 91.3682 149.513 91.6318 149.279 91.8369C149.045 92.042 148.781 92.1885 148.488 92.2764C148.195 92.3643 147.888 92.3789 147.565 92.3203C147.272 92.2324 146.994 92.0713 146.73 91.8369C142.541 87.6475 138.366 83.4727 134.206 79.3125C130.075 75.123 125.915 70.9336 121.725 66.7441C120.407 71.9297 119.147 77.1299 117.946 82.3447C116.745 87.5596 115.383 92.7305 113.859 97.8574C113.683 98.4141 113.361 98.7803 112.892 98.9561C112.453 99.1318 112.013 99.1611 111.574 99.0439C111.135 98.9268 110.768 98.6777 110.475 98.2969C110.212 97.916 110.168 97.4473 110.344 96.8906C111.193 94.0781 111.97 91.251 112.673 88.4092C113.405 85.5674 114.108 82.7256 114.782 79.8838C115.485 77.0127 116.174 74.1562 116.847 71.3145C117.521 68.4434 118.239 65.5869 119.001 62.7451C119.089 62.3936 119.25 62.1152 119.484 61.9102C119.719 61.6758 119.982 61.5293 120.275 61.4707C120.597 61.3828 120.92 61.3828 121.242 61.4707C121.564 61.5293 121.843 61.6758 122.077 61.9102C126.266 66.1289 130.441 70.3184 134.601 74.4785C138.762 78.6387 142.936 82.8281 147.126 87.0469C147.917 84.1758 148.635 81.29 149.279 78.3896C149.953 75.46 150.597 72.5449 151.213 69.6445C151.857 66.7148 152.502 63.7998 153.146 60.8994C153.82 57.9697 154.538 55.0547 155.3 52.1543C155.446 51.5977 155.739 51.2314 156.179 51.0557C156.618 50.8506 157.057 50.8066 157.497 50.9238C157.936 51.041 158.303 51.3047 158.596 51.7148C158.888 52.0957 158.962 52.5645 158.815 53.1211C157.966 56.2559 157.189 59.4199 156.486 62.6133C155.812 65.7773 155.124 68.9561 154.421 72.1494C153.747 75.3135 153.029 78.4775 152.267 81.6416C151.535 84.8057 150.7 87.9404 149.763 91.0459Z" fill="#D9CCC4"/>
</svg>
