<svg width="175" height="141" viewBox="0 0 175 141" fill="none" xmlns="http://www.w3.org/2000/svg">
<g style="mix-blend-mode:overlay">
<path d="M149.229 65.1966C149.303 69.6012 147.036 73.7882 144.473 77.6308C139.385 85.2254 134.998 94.5419 125.744 98.4208C117.503 101.865 109.263 105.327 101.023 108.77C96.9855 110.456 92.9298 112.16 89.3719 114.498C85.814 116.836 83.1779 119.954 81.8321 123.579C86.2933 123.343 89.5378 119.718 93.9437 119.12C113.005 116.474 131.182 109.224 145.93 98.6564C151.755 94.4875 156.456 89.1586 159.516 83.2316C165.12 72.3925 165.415 60.1577 165.286 48.3218C165.194 39.1502 160.899 30.2143 155.092 22.4747C152.05 18.4146 148.474 14.6626 144.436 11.2731C141.229 8.59052 137.579 5.94419 136.27 2.28282C136.159 1.99282 136.067 1.68468 136.104 1.37655C136.196 0.343389 138.04 -0.363511 139.072 0.198382C149.469 5.83543 158.336 14.0826 163.59 23.5441C174.78 43.6816 179.259 68.5136 168.125 88.6692C160.216 102.988 145.948 114.734 128.804 121.005C121.411 123.706 113.558 125.428 106.092 128.002C96.9486 131.156 86.9939 134.599 79.5462 140.11C68.7435 130.394 53.2952 125.645 39.7826 118.794C18.1587 107.828 0.0927291 89.0136 0.000555668 67.6798C-0.0363137 60.1577 1.77028 52.0012 2.82106 44.5335C3.06071 42.8297 3.83497 40.6728 5.84435 40.564C7.26382 41.4703 7.20852 42.9203 7.24539 44.4247C7.30069 47.7417 6.69235 51.0406 6.084 54.3394C5.88122 55.4813 5.66 56.6232 5.45722 57.7652C5.08853 59.7952 5.05166 61.8978 4.94105 63.946C4.84888 65.831 4.75671 67.7161 5.18071 69.5649C5.58627 71.3775 6.48957 73.0813 7.37443 74.7669C9.88155 79.5521 12.4255 84.3735 16.2231 88.5061C21.1636 93.8894 26.0119 99.1277 32.7037 102.898C39.4139 106.668 46.7878 109.459 54.1432 112.251C54.9728 112.559 55.8392 112.649 56.6872 112.903C65.1672 115.604 73.0572 119.628 79.8043 124.721C81.9796 120.262 77.924 114.516 73.0204 112.051C68.1167 109.586 62.2729 108.915 56.89 107.339C49.3318 105.127 42.5663 101.013 37.6626 95.6657C32.759 90.3187 27.3761 85.6423 25.3667 79.2258C24.0947 75.1657 21.9747 70.9243 23.5416 66.9367C23.7076 66.5017 23.4864 66.0304 23.7076 65.6135C24.3159 64.3991 25.0533 63.0759 26.4728 62.5503C28.4637 61.789 30.8234 62.9853 31.9847 64.5441C33.1461 66.1029 33.5517 67.9698 34.455 69.6555C35.4505 71.5043 37.0358 73.0631 38.5844 74.6038C40.7781 76.7789 42.9903 78.9539 45.184 81.129C49.9586 85.8416 56.2264 89.0861 63.0656 91.3518C69.9049 93.6175 77.1497 95.6657 82.3667 100.034C82.4958 95.0494 79.325 90.3187 75.0113 86.9111C70.6976 83.5034 65.3147 81.274 59.9133 79.2802C57.9777 78.5733 55.9683 77.8483 54.5304 76.5251C53.0925 75.202 52.3919 73.1356 53.4796 71.6131C54.6041 70.0543 57.019 69.6374 59.1575 69.4018C63.7477 68.858 68.6329 68.3505 72.8176 70.0362C76.9838 71.7218 79.6015 75.2201 81.9981 78.5552C82.4221 79.1533 83.1963 79.5883 83.3438 80.2771C84.9292 77.4495 88.3949 75.782 91.6578 74.2957C93.4091 73.4982 95.1604 72.7006 96.9117 71.9031C102.59 69.3111 109.337 67.9517 113.466 63.7647C114.369 62.8403 115.162 61.8253 116.213 61.0096C117.43 60.049 118.941 59.4146 120.287 58.5808C121.706 57.6927 122.923 56.6232 124.14 55.5357C124.693 55.0463 125.264 54.5388 125.817 54.0494C128.38 54.3938 129.486 56.6414 129.412 58.8346C129.265 62.8766 126.573 66.5561 123.458 69.6374C118.775 74.2775 112.913 78.1564 106.129 80.2227C102.313 81.3828 98.239 81.999 94.6996 83.6847C88.6345 86.5848 85.0029 92.7475 85.9246 98.602C86.2012 100.396 85.7219 102.263 85.7956 104.058C92.4505 97.7502 103.825 97.152 112.305 92.6931C116.876 90.2824 120.508 86.8023 124.066 83.3766C130.703 76.9601 137.781 69.5468 137.007 61.064C136.546 56.0795 136.97 50.5512 137.91 45.621C138.076 44.6966 138.316 43.7179 139.109 43.0835C140.289 42.1409 142.206 42.3222 143.662 42.9385C146.409 44.1166 148.16 46.5273 148.934 49.0468C149.709 51.5662 149.616 54.2125 149.524 56.8045C149.414 60.194 149.137 61.789 149.193 65.1785L149.229 65.1966Z" fill="#EEE7D9"/>
<path d="M110.554 33.7848C108.489 34.3467 107.014 35.978 105.558 37.4099C102.332 40.5819 98.5341 43.2463 94.6628 45.7477C92.5797 47.089 90.4229 48.4302 88.8191 50.2609C87.2152 52.0916 86.3857 54.4661 87.0124 56.7318C85.7036 51.6566 82.2379 47.0527 77.5002 44.1164C72.7624 41.18 66.7527 39.6937 61.0564 40.4006C60.9827 44.932 62.7524 49.4815 65.9416 52.9797C68.7068 56.0067 72.3937 58.1818 75.7857 60.6469C79.3621 63.257 82.625 66.2114 85.4824 69.4378C87.8605 65.2326 93.3355 63.692 97.7599 61.1906C104.433 57.4024 109.429 51.276 111.475 44.3883C112.452 41.0894 112.618 36.6486 110.554 33.7848Z" fill="#EEE7D9"/>
<path d="M85.4816 44.9503C82.2924 40.7633 79.1769 36.4857 76.1721 32.0993C74.5867 29.7792 73.0013 27.4048 72.0059 24.6497C71.2685 22.6015 70.8629 20.372 70.8445 18.1245C70.8076 15.4781 72.1902 12.9224 74.0705 11.5993C75.9509 10.2761 78.2368 10.0042 80.3752 10.3849C81.2232 10.5299 82.1081 10.8017 82.7533 11.5086C83.1404 11.9255 83.3985 12.4874 83.6566 13.0312C84.9654 15.9132 85.8872 19.0489 86.3665 22.2752C86.7536 17.7801 87.5647 12.9224 89.8322 9.35171C92.0997 5.78098 96.5977 3.91404 99.6395 6.52412C102.276 8.78981 102.773 13.3393 102.368 17.2363C102.11 19.6289 101.594 22.0033 100.727 24.1784C99.7132 26.6979 98.2384 28.8911 96.7452 31.0118C93.1873 36.0688 89.2423 40.0927 85.5 44.9503H85.4816Z" fill="#EEE7D9"/>
</g>
</svg>
